<svg id="Layer_1" data-name="Layer 1" xmlns="http://www.w3.org/2000/svg" viewBox="0 0 18 18"><defs><style>.cls-1{fill:#434343;}</style></defs><title>stores brand_icon_0619</title><g id="GkGHds"><path class="cls-1" d="M8.4,0H9.6l.64.08a9,9,0,0,1,4.67,2.13,8.87,8.87,0,0,1,3,5.45c0,.24.07.49.1.74V9.6c-.05.33-.08.66-.14,1a8.79,8.79,0,0,1-2.57,4.85A8.79,8.79,0,0,1,9.69,18a8.76,8.76,0,0,1-3.41-.39,8.83,8.83,0,0,1-4.66-3.44A8.79,8.79,0,0,1,.09,7.75,8.59,8.59,0,0,1,1.76,3.66,8.87,8.87,0,0,1,7.64.1ZM1.13,9A7.87,7.87,0,1,0,9,1.13,7.89,7.89,0,0,0,1.13,9Z"/><path class="cls-1" d="M12.27,14.07a8.52,8.52,0,0,1-8.1-6.53,7.77,7.77,0,0,1-.23-2,.89.89,0,0,1,.27-.65c.18-.18.37-.36.54-.55A1.32,1.32,0,0,1,7,5c.12.41.22.81.33,1.22A1.28,1.28,0,0,1,7,7.44a3.31,3.31,0,0,0-.32.33A.27.27,0,0,0,6.6,8,5.06,5.06,0,0,0,10,11.41a.22.22,0,0,0,.25-.07,4.08,4.08,0,0,1,.36-.36,1.23,1.23,0,0,1,1.18-.3c.42.1.83.21,1.24.33a1.37,1.37,0,0,1,1,1.63A2.83,2.83,0,0,1,12.62,14,2.68,2.68,0,0,1,12.27,14.07Z"/></g></svg>