<?xml version="1.0" encoding="UTF-8"?>
<svg width="18px" height="18px" viewBox="0 0 18 18" version="1.1" xmlns="http://www.w3.org/2000/svg" xmlns:xlink="http://www.w3.org/1999/xlink">
    <!-- Generator: Sketch 52.4 (67378) - http://www.bohemiancoding.com/sketch -->
    <title>ic_sign</title>
    <desc>Created with Sketch.</desc>
    <g id="Page-1" stroke="none" stroke-width="1" fill="none" fill-rule="evenodd">
        <g id="03个人中心3-功能按钮" transform="translate(-57.000000, -406.000000)" fill="#424242" fill-rule="nonzero">
            <g id="推送消息" transform="translate(0.000000, 244.000000)">
                <g id="Group" transform="translate(53.000000, 160.000000)">
                    <g id="ic_sign" transform="translate(4.000000, 2.000000)">
                        <g id="签到">
                            <path d="M17.1562122,18 L0.843749397,18 C0.377626403,18 0,17.622049 0,17.1562393 L1.33236083e-16,3.09376518 C1.33236083e-16,2.62795545 0.377645586,2.25002248 0.843749397,2.25002248 L2.53122901,2.25002248 L2.53122901,3.09376518 C2.53122901,4.18140407 3.41277942,5.06252811 4.49997121,5.06252811 C5.58718218,5.06252811 6.46875179,4.18140407 6.46875179,3.09376518 L6.46875179,2.25004048 L11.5312482,2.25004048 L11.5312482,3.09378318 C11.5312482,4.18142207 12.412741,5.06254611 13.5000096,5.06254611 C14.5872014,5.06254611 15.4687326,4.18142207 15.4687326,3.09378318 L15.4687326,2.25004048 L17.1562506,2.25004048 C17.6223736,2.25004048 18,2.62797345 18,3.09378318 L18,17.1562393 C17.9999616,17.622049 17.6223352,18 17.1562122,18 Z M16.3124436,6.7499955 L1.687518,6.7499955 L1.687518,16.3124966 L16.3124436,16.3124966 L16.3124436,6.7499955 Z M6.18747002,10.6875214 C6.4203972,10.6875214 6.63131537,10.7820001 6.78424638,10.9347276 L8.15621222,12.306882 L11.4972465,8.96594665 C11.6498705,8.8132372 11.8608078,8.71875845 12.0937158,8.71875845 C12.5598388,8.71875845 12.9374844,9.09667344 12.9374844,9.56246517 C12.9374844,9.79537002 12.8431546,10.0063642 12.6902043,10.1590197 L8.75270074,14.0965275 C8.60007673,14.249255 8.38915858,14.3437337 8.15621222,14.3437337 C7.92330422,14.3437337 7.71238607,14.249255 7.55943586,14.0965275 L5.59071284,12.1278545 C5.43806965,11.975163 5.34375899,11.7641329 5.34375899,11.531264 C5.34373981,11.0654004 5.72138539,10.6875214 6.18747002,10.6875214 Z M13.4999712,3.93748988 C13.0341552,3.93748988 12.6561834,3.55957489 12.6561834,3.09374718 L12.6561834,0.843760682 C12.6561834,0.377932974 13.0341168,0 13.4999712,0 C13.9660942,0 14.3437206,0.377932974 14.3437206,0.843760682 L14.3437206,3.09374719 C14.3437206,3.55959289 13.9660942,3.93748988 13.4999712,3.93748988 Z M4.49997121,3.93748988 C4.0338674,3.93748988 3.65622181,3.55957489 3.65622181,3.09374718 L3.65622181,0.843760682 C3.65622181,0.377932974 4.0338674,0 4.49997121,0 C4.96578719,0 5.34375899,0.377932974 5.34375899,0.843760682 L5.34375899,3.09374719 C5.34373981,3.55959289 4.96580639,3.93748988 4.49997121,3.93748988 Z" id="Shape"></path>
                        </g>
                    </g>
                </g>
            </g>
        </g>
    </g>
</svg>