<svg id="Layer_1" data-name="Layer 1" xmlns="http://www.w3.org/2000/svg" viewBox="0 0 18 18"><defs><style>.cls-1{fill:#434343;}</style></defs><title>stores brand_icon_0619</title><path class="cls-1" d="M3.14,9.78H15A.77.77,0,0,0,15.73,9a.75.75,0,0,0-.21-.55.87.87,0,0,0-.6-.26H3.15a.85.85,0,0,0-.86.54l0,.06V9.1l0,.13A.84.84,0,0,0,3.14,9.78Z"/><path class="cls-1" d="M2.36,7.25a.77.77,0,0,0,.64.4H3a.72.72,0,0,0,.61-.32.93.93,0,0,0,.16-.52c0-.61,0-1.22,0-1.83V4.41c0-.4.19-.59.6-.59h2.5a.77.77,0,0,0,0-1.54H6.15c-.63,0-1.25,0-1.88,0a1.93,1.93,0,0,0-1.7,1,2.81,2.81,0,0,0-.22.51L2.29,4l0,3V7.1Z"/><path class="cls-1" d="M6.8,14.18H6c-.55,0-1.1,0-1.65,0a.55.55,0,0,1-.58-.58c0-.55,0-1.09,0-1.64v-.9a.74.74,0,0,0-.49-.66.72.72,0,0,0-.8.15,1.3,1.3,0,0,0-.16.21l-.09.14v3l0,.13.06.18a2.61,2.61,0,0,0,.2.5,2,2,0,0,0,1.39,1H4l3,0,.11,0,.16-.08a.76.76,0,0,0,.39-.6.8.8,0,0,0-.27-.68A.86.86,0,0,0,6.8,14.18Z"/><path class="cls-1" d="M15.73,11.35V11.1a.77.77,0,0,0-.55-.72.73.73,0,0,0-.86.33,1,1,0,0,0-.13.49c0,.48,0,1,0,1.45v1a.5.5,0,0,1-.54.54H11.09a.77.77,0,0,0-.62.35.79.79,0,0,0-.07.7.85.85,0,0,0,.48.47l.07,0h3l.13,0a2,2,0,0,0,1.69-2c0-.54,0-1.09,0-1.64Z"/><path class="cls-1" d="M11.2,3.82h2.41a.53.53,0,0,1,.48.22.62.62,0,0,1,.09.36q0,1.21,0,2.43a.78.78,0,0,0,.42.73.77.77,0,0,0,.36.09.76.76,0,0,0,.39-.1.79.79,0,0,0,.38-.68V4.38c0-.12,0-.24,0-.36a2,2,0,0,0-2-1.75H11.12a.73.73,0,0,0-.61.31.75.75,0,0,0-.12.68A.77.77,0,0,0,11.2,3.82Z"/></svg>