<svg id="Layer_1" data-name="Layer 1" xmlns="http://www.w3.org/2000/svg" viewBox="0 0 18 18"><defs><style>.cls-1{fill:#434343;}</style></defs><title>stores brand_icon_0619</title><path class="cls-1" d="M1.17,10H17a1,1,0,0,0,1-1,1,1,0,0,0-.29-.73,1.15,1.15,0,0,0-.8-.34H1.18A1.15,1.15,0,0,0,0,8.69l0,.09v.36l0,.17A1.13,1.13,0,0,0,1.17,10Z"/><path class="cls-1" d="M.13,6.66A1,1,0,0,0,1,7.2H1a1,1,0,0,0,.82-.43,1.4,1.4,0,0,0,.21-.69V2.87c0-.54.25-.79.8-.79H6.2A1,1,0,0,0,6.14,0H2.68A2.57,2.57,0,0,0,.41,1.32,3.29,3.29,0,0,0,.12,2L0,2.27l0,4,0,.16Z"/><path class="cls-1" d="M6.06,15.92H5c-.73,0-1.47,0-2.2,0a.76.76,0,0,1-.57-.21.76.76,0,0,1-.2-.56q0-1.1,0-2.19v-1.2a1,1,0,0,0-.66-.89,1,1,0,0,0-1.07.21,1,1,0,0,0-.21.28L0,11.56v4l0,.16A2.41,2.41,0,0,1,.11,16a3.67,3.67,0,0,0,.27.66A2.67,2.67,0,0,0,2.24,18h0l4,0,.15,0,.21-.11a1,1,0,0,0,.53-.8,1.08,1.08,0,0,0-.37-.91A1.15,1.15,0,0,0,6.06,15.92Z"/><path class="cls-1" d="M18,12.14c0-.11,0-.22,0-.33a1,1,0,0,0-.74-1,1,1,0,0,0-1.15.43,1.43,1.43,0,0,0-.17.65V15.2a.68.68,0,0,1-.73.72H11.79a1,1,0,0,0-.92,1.41,1.12,1.12,0,0,0,.64.62l.09,0h4l.17,0A2.71,2.71,0,0,0,18,15.33c0-.73,0-1.47,0-2.2Z"/><path class="cls-1" d="M11.94,2.08h3.22a.7.7,0,0,1,.64.29.76.76,0,0,1,.13.48V6.1a1,1,0,0,0,1,1.1,1.07,1.07,0,0,0,.52-.14A1.09,1.09,0,0,0,18,6.15V2.83a4,4,0,0,0,0-.49A2.72,2.72,0,0,0,15.3,0H11.83A1,1,0,0,0,11,.42a1,1,0,0,0,.93,1.66Z"/></svg>